<svg version="1" xmlns="http://www.w3.org/2000/svg" width="682.667" height="682.667" viewBox="0 0 512.000000 512.000000"><path d="M0 256v256h512V0H0v256zm188.2 8.4l.3 24.5 15.4-14c12.2-11.1 15.9-13.9 18.2-13.9 2.7 0 2.1.7-7.4 9.6-5.6 5.3-10.1 10.1-9.9 10.6.1.5 4.8 6.7 10.4 13.6 5.6 7 10.6 13.3 11.1 13.9.7 1 .2 1.3-1.9 1.3-2.5 0-4.3-1.8-13.3-13-11.6-14.6-9.9-14.1-18.3-6.1l-4.8 4.5v7.3c0 7.1-.1 7.3-2.5 7.3H183v-70h5l.2 24.4zM292 275c0 33.3 0 34-2 34s-2-.7-2-34 0-34 2-34 2 .7 2 34zm-36.5-30.1c0 3.4-3 5.1-5.1 2.9-2.5-2.4-1-6 2.4-5.6 2.1.2 2.7.8 2.7 2.7zM144.2 276c8 17.3 14.7 32.1 14.7 32.7.1.7-.9 1.3-2.1 1.3-2 0-3.9-3.6-15.7-29.5-7.4-16.2-13.7-29.5-14.1-29.5-.4 0-6.7 13.3-14.1 29.5-11.8 26.2-13.6 29.5-15.6 29.5-1.3 0-2.3-.4-2.3-.8 0-.7 26.7-58.9 29.1-63.3.6-1.3 1.8-1.9 3.2-1.7 1.8.2 4.7 5.8 16.9 31.8zm110.8 9.5c0 23.8-.1 24.5-2 24.5s-2-.7-2-24.5.1-24.5 2-24.5 2 .7 2 24.5z"/></svg>